<svg xmlns="http://www.w3.org/2000/svg" viewBox="0 0 800 400" width="800" height="400">
  <defs>
    <linearGradient id="g" x1="0%" y1="0%" x2="100%" y2="100%">
      <stop offset="0%" stop-color="#065f46"/>
      <stop offset="100%" stop-color="#047857"/>
    </linearGradient>
  </defs>
  <rect width="800" height="400" fill="url(#g)"/>
  <!-- Grid pattern -->
  <g stroke="rgba(255,255,255,0.05)" stroke-width="1">
    <line x1="0" y1="80" x2="800" y2="80"/><line x1="0" y1="160" x2="800" y2="160"/><line x1="0" y1="240" x2="800" y2="240"/><line x1="0" y1="320" x2="800" y2="320"/>
    <line x1="80" y1="0" x2="80" y2="400"/><line x1="160" y1="0" x2="160" y2="400"/><line x1="240" y1="0" x2="240" y2="400"/><line x1="320" y1="0" x2="320" y2="400"/><line x1="400" y1="0" x2="400" y2="400"/><line x1="480" y1="0" x2="480" y2="400"/><line x1="560" y1="0" x2="560" y2="400"/><line x1="640" y1="0" x2="640" y2="400"/><line x1="720" y1="0" x2="720" y2="400"/>
  </g>
  <!-- Shopping bag -->
  <path d="M350 160 L360 130 Q400 115 440 130 L450 160 Z" fill="none" stroke="rgba(255,255,255,0.4)" stroke-width="2.5"/>
  <rect x="340" y="160" width="120" height="90" rx="6" fill="rgba(255,255,255,0.18)" stroke="rgba(255,255,255,0.35)" stroke-width="2"/>
  <!-- Bag handle detail -->
  <path d="M370 160 Q370 145 400 145 Q430 145 430 160" fill="none" stroke="rgba(255,255,255,0.5)" stroke-width="2.5"/>
  <!-- Tag -->
  <circle cx="400" cy="200" r="8" fill="rgba(255,255,255,0.3)"/>
  <circle cx="400" cy="200" r="3" fill="rgba(255,255,255,0.6)"/>
  <circle cx="400" cy="200" r="130" fill="rgba(4,120,87,0.15)"/>
</svg>
