<svg xmlns="http://www.w3.org/2000/svg" viewBox="0 0 800 400" width="800" height="400">
  <defs>
    <linearGradient id="g" x1="0%" y1="0%" x2="100%" y2="100%">
      <stop offset="0%" stop-color="#0c4a6e"/>
      <stop offset="100%" stop-color="#4338ca"/>
    </linearGradient>
  </defs>
  <rect width="800" height="400" fill="url(#g)"/>
  <!-- Grid -->
  <g stroke="rgba(255,255,255,0.05)" stroke-width="1">
    <line x1="0" y1="120" x2="800" y2="120"/><line x1="0" y1="160" x2="800" y2="160"/><line x1="0" y1="200" x2="800" y2="200"/><line x1="0" y1="240" x2="800" y2="240"/><line x1="0" y1="280" x2="800" y2="280"/>
    <line x1="280" y1="100" x2="280" y2="320"/><line x1="320" y1="100" x2="320" y2="320"/><line x1="360" y1="100" x2="360" y2="320"/><line x1="400" y1="100" x2="400" y2="320"/><line x1="440" y1="100" x2="440" y2="320"/><line x1="480" y1="100" x2="480" y2="320"/><line x1="520" y1="100" x2="520" y2="320"/>
  </g>
  <!-- Bar chart -->
  <g fill="rgba(99,102,241,0.5)">
    <rect x="300" y="230" width="28" height="70"/>
    <rect x="340" y="190" width="28" height="110"/>
    <rect x="380" y="155" width="28" height="145"/>
    <rect x="420" y="175" width="28" height="125"/>
    <rect x="460" y="210" width="28" height="90"/>
  </g>
  <g fill="rgba(129,140,248,0.7)">
    <rect x="300" y="220" width="28" height="10"/>
    <rect x="340" y="180" width="28" height="10"/>
    <rect x="380" y="145" width="28" height="10"/>
    <rect x="420" y="165" width="28" height="10"/>
    <rect x="460" y="200" width="28" height="10"/>
  </g>
  <!-- Trend line -->
  <polyline points="314,225 354,185 394,150 434,170 474,205" fill="none" stroke="rgba(224,231,255,0.6)" stroke-width="2" stroke-dasharray="4,3"/>
  <circle cx="394" cy="150" r="5" fill="rgba(224,231,255,0.8)"/>
  <circle cx="400" cy="200" r="130" fill="rgba(67,56,202,0.1)"/>
</svg>
