<svg xmlns="http://www.w3.org/2000/svg" viewBox="0 0 800 400" width="800" height="400">
  <defs>
    <linearGradient id="g" x1="0%" y1="0%" x2="100%" y2="100%">
      <stop offset="0%" stop-color="#1e40af"/>
      <stop offset="100%" stop-color="#0284c7"/>
    </linearGradient>
  </defs>
  <rect width="800" height="400" fill="url(#g)"/>
  <!-- Grid lines -->
  <g stroke="rgba(255,255,255,0.05)" stroke-width="1">
    <line x1="0" y1="100" x2="800" y2="100"/><line x1="0" y1="200" x2="800" y2="200"/><line x1="0" y1="300" x2="800" y2="300"/>
    <line x1="100" y1="0" x2="100" y2="400"/><line x1="200" y1="0" x2="200" y2="400"/><line x1="300" y1="0" x2="300" y2="400"/><line x1="400" y1="0" x2="400" y2="400"/><line x1="500" y1="0" x2="500" y2="400"/><line x1="600" y1="0" x2="600" y2="400"/><line x1="700" y1="0" x2="700" y2="400"/>
  </g>
  <!-- Browser window mockup -->
  <rect x="240" y="110" width="320" height="200" rx="8" fill="rgba(255,255,255,0.08)" stroke="rgba(255,255,255,0.2)" stroke-width="1.5"/>
  <rect x="240" y="110" width="320" height="28" rx="8" fill="rgba(255,255,255,0.12)"/>
  <circle cx="260" cy="124" r="4" fill="rgba(255,255,255,0.3)"/>
  <circle cx="276" cy="124" r="4" fill="rgba(255,255,255,0.3)"/>
  <circle cx="292" cy="124" r="4" fill="rgba(255,255,255,0.3)"/>
  <rect x="310" y="118" width="180" height="12" rx="6" fill="rgba(255,255,255,0.12)"/>
  <!-- Code lines -->
  <g fill="rgba(255,255,255,0.25)">
    <rect x="260" y="155" width="80" height="6" rx="3"/>
    <rect x="270" y="170" width="100" height="6" rx="3"/>
    <rect x="270" y="185" width="60" height="6" rx="3"/>
    <rect x="260" y="200" width="90" height="6" rx="3"/>
    <rect x="270" y="215" width="110" height="6" rx="3"/>
    <rect x="260" y="230" width="70" height="6" rx="3"/>
    <rect x="360" y="155" width="60" height="6" rx="3" fill="rgba(96,165,250,0.5)"/>
    <rect x="360" y="185" width="80" height="6" rx="3" fill="rgba(96,165,250,0.4)"/>
    <rect x="360" y="215" width="50" height="6" rx="3" fill="rgba(96,165,250,0.5)"/>
  </g>
  <circle cx="400" cy="200" r="130" fill="rgba(14,165,233,0.1)"/>
</svg>
